<svg width="35" height="32" viewBox="0 0 35 32" fill="none" xmlns="http://www.w3.org/2000/svg">
<path d="M5.39844 5.61719C8.10673 2.81803 13.1772 -0.199478 19.5078 2.02539C22.215 3.47345 24.4362 2.6747 26.1973 2.20508C27.1122 1.9611 27.9191 1.78854 28.7871 1.83887C29.6047 1.88628 30.5514 2.13991 31.7119 2.85645C32.9103 4.15017 33.0791 6.22836 32.6934 8.98633C32.5014 10.359 32.1943 11.77 31.9014 13.1943C31.6147 14.5881 31.3383 16.0089 31.2529 17.2891C31.0318 20.6064 29.0162 23.9446 26.0596 26.4873C23.106 29.0273 19.385 30.6221 16 30.6221C7.8538 30.6221 1.25 24.0183 1.25 15.8721C1.25006 11.8867 2.82919 8.27265 5.39844 5.61719Z" stroke="#00FE00" stroke-width="2.5"/>
<path d="M12 25.3723L10.906 25.4874L11.1691 27.9858L12.8266 26.098L12 25.3723ZM30 4.87225L17.9699 8.9478L27.5145 17.3284L30 4.87225ZM10.9998 15.872L12.0938 15.7569L11.8626 13.5616L10.2491 15.068L10.9998 15.872ZM12 25.3723L12.8266 26.098L24.2946 13.0373L23.468 12.3115L22.6414 11.5857L11.1734 24.6465L12 25.3723ZM3.50123 22.8726L4.25189 23.6767L11.7505 16.6761L10.9998 15.872L10.2491 15.068L2.75057 22.0686L3.50123 22.8726ZM10.9998 15.872L9.90584 15.9872L10.906 25.4874L12 25.3723L13.094 25.2571L12.0938 15.7569L10.9998 15.872Z" fill="#00FE00"/>
</svg>
